<svg version="1.1" viewBox="0 0 16 16" xmlns="http://www.w3.org/2000/svg">
<g transform="translate(0 -810.5)">
<path transform="translate(0 810.5)" d="m0 0v4h1v-3h3v-1h-4zm12 0v1h2.293l-3.5566 3.5566a3 3 0 01.70508.70898l3.5586-3.5586v2.293h1v-4h-4zm3 12v3h-3v1h4v-4h-1z" fill="#a5b7f3" style="paint-order:stroke fill markers"/>
<path transform="translate(0 810.5)" d="m2 5c-1.108 0-2 .89201-2 2v4c0 1.108.89201 2 2 2h1v1h-2c-.554 0-1 .446-1 1s.446 1 1 1h2c1.108 0 2-.89201 2-2v-1h1v1c0 1.108.89201 2 2 2h2c.554 0 1-.446 1-1s-.446-1-1-1h-2v-1h1c1.108 0 2-.89201 2-2v-4c0-1.108-.89201-2-2-2h-7zm0 1c.554 0 1 .446 1 1v1c0 .554-.446 1-1 1s-1-.446-1-1v-1c0-.554.446-1 1-1zm7 0c.554 0 1 .446 1 1v1c0 .554-.446 1-1 1s-1-.446-1-1v-1c0-.554.446-1 1-1zm-6 4h5v.5c0 .831-.669 1.5-1.5 1.5h-2c-.831 0-1.5-.669-1.5-1.5v-.5z" fill="#707da6" style="paint-order:stroke fill markers"/>
</g>
</svg>
